<svg xmlns="http://www.w3.org/2000/svg" viewBox="0 0 106.04 25.61"><defs><style>.cls-1,.cls-2{fill:#fff;}.cls-1{stroke:#00aeef;stroke-width:0.5px;}</style></defs><title>Asset 2</title><g id="Layer_2" data-name="Layer 2"><g id="Layer_1-2" data-name="Layer 1"><path class="cls-1" d="M35.89,5.06a5.81,5.81,0,0,1,3.36.81,2.85,2.85,0,0,1,1.16,2.48A4.63,4.63,0,0,1,40.12,10a3,3,0,0,1-.92,1.24,4.55,4.55,0,0,1-1.61.77,8.93,8.93,0,0,1-2.35.27H24L26.42,9.2h9.11a1.74,1.74,0,0,0,1-.21.78.78,0,0,0,.31-.68.73.73,0,0,0-.31-.66,1.85,1.85,0,0,0-1-.2H29a7.06,7.06,0,0,1-2-.25,4.27,4.27,0,0,1-1.4-.7,2.74,2.74,0,0,1-.83-1.09A3.63,3.63,0,0,1,24.46,4a3.8,3.8,0,0,1,.3-1.53,2.83,2.83,0,0,1,.91-1.18A4.46,4.46,0,0,1,27.28.52,8.85,8.85,0,0,1,29.62.25H40.08L37.69,3.38H29.34a2,2,0,0,0-1,.18.68.68,0,0,0-.31.65.71.71,0,0,0,.31.66,2,2,0,0,0,1,.19Z"/><path class="cls-1" d="M58,4.77a4.16,4.16,0,0,1-.4,1.82A3.72,3.72,0,0,1,56.4,8a6,6,0,0,1-1.86.9A8.79,8.79,0,0,1,52,9.21h-6.3v3.08H42V6.14H52.39a2.15,2.15,0,0,0,1.35-.38,1.24,1.24,0,0,0,.47-1,1.22,1.22,0,0,0-.47-1,2.15,2.15,0,0,0-1.35-.37H42L44.49.25h7.56a8.65,8.65,0,0,1,2.5.33,5.5,5.5,0,0,1,1.86.93,4,4,0,0,1,1.15,1.42A4.28,4.28,0,0,1,58,4.77Z"/><path class="cls-1" d="M63.63,12.29H59.9V.25h3.73Z"/><path class="cls-1" d="M81.84,4.77a4.15,4.15,0,0,1-.39,1.82A3.91,3.91,0,0,1,80.29,8a6,6,0,0,1-1.87.9,8.67,8.67,0,0,1-2.5.32h-6.3v3.08H65.91V6.14H76.28a2.12,2.12,0,0,0,1.34-.38,1.22,1.22,0,0,0,.48-1,1.2,1.2,0,0,0-.48-1,2.12,2.12,0,0,0-1.34-.37H65.91L68.38.25h7.56a8.7,8.7,0,0,1,2.5.33,5.45,5.45,0,0,1,1.85.93,4,4,0,0,1,1.16,1.42A4.27,4.27,0,0,1,81.84,4.77Z"/><path class="cls-2" d="M5.61,20.87l.42.75.32.58.24.46.21.41.19-.4.24-.46.32-.58L8,20.88l1.18-2.09a1.7,1.7,0,0,1,.5-.56,1.22,1.22,0,0,1,.76-.22,1.27,1.27,0,0,1,.77.25,1.36,1.36,0,0,1,.5.76l1.86,6.47H11.27l-.69-2.56c-.12-.42-.21-.79-.29-1.1a8.24,8.24,0,0,1-.21-.93l-.42.86-.61,1.18-1,1.85a1.69,1.69,0,0,1-.29.43,1.33,1.33,0,0,1-.3.25.76.76,0,0,1-.33.11,2.38,2.38,0,0,1-.39,0,2.25,2.25,0,0,1-.38,0A.76.76,0,0,1,6,25.47a1.14,1.14,0,0,1-.3-.25,2,2,0,0,1-.3-.43l-1-1.86-.35-.67c-.1-.2-.19-.38-.28-.54s-.16-.3-.22-.43l-.18-.39c-.06.3-.13.6-.21.92s-.17.69-.28,1.11l-.7,2.56H0L1.9,19a1.33,1.33,0,0,1,.51-.76A1.27,1.27,0,0,1,3.19,18a1.27,1.27,0,0,1,.74.21,1.64,1.64,0,0,1,.5.57Z"/><path class="cls-2" d="M19.1,18a7.33,7.33,0,0,1,4,.91,3.23,3.23,0,0,1,1.34,2.89,3.23,3.23,0,0,1-1.34,2.89,7.2,7.2,0,0,1-4,.91,7.23,7.23,0,0,1-4.05-.91,3.25,3.25,0,0,1-1.33-2.89,3.23,3.23,0,0,1,1.34-2.89A7.3,7.3,0,0,1,19.1,18Zm0,5.69a14.49,14.49,0,0,0,1.45-.07,2.66,2.66,0,0,0,1-.28,1.19,1.19,0,0,0,.53-.58,2.82,2.82,0,0,0,0-1.93,1.22,1.22,0,0,0-.53-.57,2.67,2.67,0,0,0-1-.27,12,12,0,0,0-1.45-.07,12.07,12.07,0,0,0-1.46.07,2.67,2.67,0,0,0-1,.27,1.27,1.27,0,0,0-.53.57,2.82,2.82,0,0,0,0,1.93,1.24,1.24,0,0,0,.53.58,2.66,2.66,0,0,0,1,.28A14.55,14.55,0,0,0,19.1,23.7Z"/><path class="cls-2" d="M33.93,21.71a1.54,1.54,0,0,1,.82.56,1.64,1.64,0,0,1,.34,1.08,2.61,2.61,0,0,1-.14.85,1.54,1.54,0,0,1-.49.67,2.27,2.27,0,0,1-.92.46,5.3,5.3,0,0,1-1.44.16H25.63V21h6.51a.93.93,0,0,0,.45-.1.42.42,0,0,0,.19-.39.37.37,0,0,0-.2-.37.92.92,0,0,0-.44-.1H25.63l1.54-1.92H32a5,5,0,0,1,1.2.13,2.68,2.68,0,0,1,.91.38,1.85,1.85,0,0,1,.58.64,1.83,1.83,0,0,1,.21.89,1.72,1.72,0,0,1-.09.58,1.9,1.9,0,0,1-.23.45,1.62,1.62,0,0,1-.32.32A1.85,1.85,0,0,1,33.93,21.71Zm-6,.88v1h4.19a.86.86,0,0,0,.54-.13.47.47,0,0,0,.16-.39.44.44,0,0,0-.16-.37.94.94,0,0,0-.54-.12Z"/><path class="cls-2" d="M38.54,25.49H36.27V18.13h2.27Z"/><path class="cls-2" d="M47.94,23.6l-1.48,1.89H40V18.13h2.28V23.6Z"/><path class="cls-2" d="M57.24,23.6l-1.46,1.89H48.7V18.13h8.52l-1.47,1.92H51v.88h5.83l-1.3,1.67H51v1Z"/><path class="cls-2" d="M65.35,25.49l1.38-1.89h2.53l.62,0c-.1-.13-.22-.3-.35-.5l-.4-.57-1.32-1.94-3.45,4.88H61.67l4.71-6.65a2.5,2.5,0,0,1,.59-.58,1.53,1.53,0,0,1,.89-.25,1.48,1.48,0,0,1,.86.24,2.21,2.21,0,0,1,.59.59l4.6,6.65Z"/><path class="cls-2" d="M84.44,20.89A2.43,2.43,0,0,1,84.19,22a2.31,2.31,0,0,1-.71.85,3.4,3.4,0,0,1-1.13.55,5.51,5.51,0,0,1-1.53.2H77v1.88H74.7V21.73H81a1.33,1.33,0,0,0,.82-.23.77.77,0,0,0,.29-.62.75.75,0,0,0-.29-.61,1.33,1.33,0,0,0-.82-.22H74.7l1.51-1.92h4.62a5.15,5.15,0,0,1,1.53.21,3.42,3.42,0,0,1,1.13.56,2.35,2.35,0,0,1,.7.87A2.46,2.46,0,0,1,84.44,20.89Z"/><path class="cls-2" d="M95.3,20.89A2.56,2.56,0,0,1,95.06,22a2.31,2.31,0,0,1-.71.85,3.36,3.36,0,0,1-1.14.55,5.38,5.38,0,0,1-1.52.2H87.83v1.88H85.57V21.73H91.9a1.29,1.29,0,0,0,.82-.23.75.75,0,0,0,.3-.62.73.73,0,0,0-.3-.61,1.29,1.29,0,0,0-.82-.22H85.57l1.51-1.92H91.7a5,5,0,0,1,1.52.21,3.37,3.37,0,0,1,1.14.56,2.35,2.35,0,0,1,.7.87A2.59,2.59,0,0,1,95.3,20.89Z"/><path class="cls-2" d="M103.28,21.07a3.58,3.58,0,0,1,2.06.5,1.75,1.75,0,0,1,.7,1.51,2.67,2.67,0,0,1-.18,1,1.63,1.63,0,0,1-.56.76,2.57,2.57,0,0,1-1,.48,5.5,5.5,0,0,1-1.44.16H96l1.46-1.89h5.57a1,1,0,0,0,.59-.13.54.54,0,0,0,0-.82,1.11,1.11,0,0,0-.59-.12h-4a4.5,4.5,0,0,1-1.23-.15A2.57,2.57,0,0,1,97,22a1.74,1.74,0,0,1-.5-.67,2.16,2.16,0,0,1-.17-.86,2.39,2.39,0,0,1,.19-.94,1.77,1.77,0,0,1,.56-.72,2.71,2.71,0,0,1,1-.46,5.39,5.39,0,0,1,1.43-.17h6.39l-1.46,1.92h-5.1a1.12,1.12,0,0,0-.59.11.41.41,0,0,0-.2.39.42.42,0,0,0,.2.4,1.11,1.11,0,0,0,.59.12Z"/></g></g></svg>